<svg width="358" height="74" viewBox="0 0 358 74" fill="none" xmlns="http://www.w3.org/2000/svg">
<g clip-path="url(#clip0_661_40423)">
<path d="M81.8747 18.9398L79.6243 4.51504C74.487 1.63367 66.8482 0 59.4605 0C45.7071 0 34.4731 4.97283 28.3405 15.9059C25.337 11.8307 20.4328 9.08394 12.4175 11.31C7.38773 12.7552 4.45595 14.6043 0 18.3654C12.1575 17.2882 15.3582 20.6543 16.6672 27.7276C16.6672 27.7276 19.0431 50.0963 30.9316 62.8515C37.9069 71.0378 48.6658 74 59.0749 74C67.7179 74 74.2269 72.6177 80.234 69.485L81.6774 55.5449C75.2849 59.1803 70.0938 60.4549 62.706 60.4549C50.0555 60.4549 39.1532 54.8088 39.1532 37C39.1532 22.0725 47.4195 13.5451 62.3295 13.5451C69.0896 13.5451 75.6077 14.9275 81.8747 18.9398Z" fill="white"/>
<path d="M23.4094 34.0558C23.4184 51.6582 36.3648 66.1189 52.9065 67.7346C54.9149 68.0218 57.0218 68.1475 59.2363 68.0757C67.0275 67.8333 74.9442 66.3343 80.8616 63.5517L81.6864 55.5449C75.2939 59.1803 70.1117 60.4549 62.715 60.4549C50.0644 60.4549 39.1621 54.8088 39.1621 37C39.1621 33.5352 39.6104 30.4204 40.4891 27.6647C40.4891 27.6198 40.498 27.566 40.507 27.5211C43.0533 8.85953 64.8309 1.36439 79.6333 4.51504C74.4959 1.63367 66.8572 0 59.4694 0C39.6104 0 25.0143 10.3675 23.4094 34.0558Z" fill="#1C42FF"/>
<path d="M111.103 34.9624C111.103 27.5032 115.11 23.3382 122.31 23.3382C125.609 23.3382 128.801 24.0473 131.84 26.1837L130.621 17.9076C128.039 16.3367 124.336 15.5199 120.58 15.5199C110.081 15.5199 102.478 22.4226 102.478 35.7254C102.478 50.0425 111.704 54.351 120.472 54.351C124.677 54.351 128.075 53.6419 131.069 52.0172L132.083 43.8937C128.936 45.8236 125.995 46.5866 122.453 46.5866C116.321 46.5866 111.094 43.7411 111.094 34.9624" fill="white"/>
<path d="M199.388 42.8794L193.659 27.5032H185.079L195.282 53.6419H202.042L212.89 27.5032H205.117L199.388 42.8794Z" fill="white"/>
<path d="M149.171 47.6997C145.827 47.6997 143.388 45.1594 143.388 40.4918C143.388 35.8241 145.719 33.3826 149.171 33.3826C152.623 33.3826 154.9 35.9677 154.9 40.4918C154.9 45.0158 152.623 47.6997 149.171 47.6997ZM149.171 26.8389C140.501 26.8389 135.382 32.5747 135.382 40.5905C135.382 48.6063 140.403 54.2433 149.117 54.2433C157.832 54.2433 162.907 48.6063 162.907 40.5366C162.907 32.467 157.984 26.8299 149.171 26.8299" fill="white"/>
<path d="M175.288 30.8513L173.612 27.5032H167.524V53.6419H175.53V37.4488C177.395 36.5512 179.52 35.878 181.663 35.6087V27.1082C179.287 27.4942 177.108 28.6162 175.27 30.8513" fill="white"/>
<path d="M336.635 61.5679H344.596L358 27.5032H350.146L344.471 44.8542L338.482 27.5032H329.713L340.158 52.6725L336.635 61.5679Z" fill="white"/>
<path d="M319.851 47.0893C318.587 48.1036 316.704 48.714 315.036 48.714C312.607 48.714 311.441 47.7984 311.441 45.8685C311.441 43.5347 313.62 42.1613 319.86 41.5061V47.0893H319.851ZM315.234 26.8838C312.141 26.8838 309.2 27.6468 306.815 29.065L305.497 36.8833C308.088 35.0522 310.975 34.1456 313.916 34.1456C316.856 34.1456 319.089 35.1599 319.699 38.0053C307.936 38.7145 303.731 41.4073 303.731 46.5866C303.731 51.7659 307.586 54.1536 312.607 54.1536C316.157 54.1536 318.838 52.8341 320.613 50.8054L322.083 53.6509H327.866V39.0825C327.866 30.1511 322.801 26.9017 315.243 26.9017" fill="white"/>
<path d="M259.584 38.2118L258.266 37.8527C255.271 37.1436 254.769 36.4345 254.769 35.2676C254.769 33.8942 255.63 33.1851 258.015 33.1851C260.4 33.1851 264.147 33.993 266.433 35.1599L265.824 28.4636C263.851 27.4493 260.857 26.8389 258.015 26.8389C251.021 26.8389 247.471 29.6305 247.471 34.9085C247.471 39.1184 249.703 41.0483 254.724 42.3229L255.988 42.6819C259.333 43.5975 259.942 44.1541 259.942 45.3748C259.942 47.1521 258.723 47.8074 256.239 47.8074C252.743 47.8074 249.094 46.8469 246.709 45.3748L247.319 52.1788C249.497 53.3996 252.994 54.1087 256.544 54.1087C263.134 54.1087 267.447 51.4158 267.447 45.68C267.447 42.0267 265.824 39.7916 259.584 38.2208" fill="white"/>
<path d="M285.557 37.4937H282.563V23.5357H285.557C290.677 23.5357 293.214 26.0759 293.214 30.6448C293.214 35.2137 290.829 37.4937 285.557 37.4937ZM286.821 16.2739H274.252V53.6329H282.563V44.4951H286.31C295.742 44.4951 301.875 38.4003 301.875 30.1332C301.875 21.8661 295.895 16.2739 286.812 16.2739" fill="white"/>
<path d="M233.108 45.2132C231.584 46.2276 230.266 46.6315 228.697 46.6315C226.061 46.6315 224.492 45.4646 224.492 41.4522V27.4942H216.486V42.3678C216.486 51.0478 220.135 54.2433 226.321 54.2433C229.055 54.2433 231.494 53.1752 233.771 51.2453L235.493 53.6329H241.123V27.4942H233.117V45.2132H233.108Z" fill="white"/>
</g>
<defs>
<clipPath id="clip0_661_40423">
<rect width="358" height="74" fill="white"/>
</clipPath>
</defs>
</svg>
